<?xml version="1.0" standalone="no"?><!DOCTYPE svg PUBLIC "-//W3C//DTD SVG 1.1//EN" "http://www.w3.org/Graphics/SVG/1.1/DTD/svg11.dtd"><svg t="1662464639835" class="icon" viewBox="0 0 1024 1024" version="1.1" xmlns="http://www.w3.org/2000/svg" p-id="7070" width="64" height="64" xmlns:xlink="http://www.w3.org/1999/xlink"><path d="M693.239175 857.255618c45.639358 0 82.629911 37.301398 82.629912 83.343026a83.489306 83.489306 0 0 1-41.324099 72.189177 81.989936 81.989936 0 0 1-82.611626 0 83.489306 83.489306 0 0 1-41.324098-72.189177c0-46.023343 37.008838-83.343026 82.648196-83.343026z m-262.993144-0.274275c45.237088 0 81.935081 37.411108 81.935082 83.489306S475.483119 1023.959956 430.246031 1023.959956c-45.237088 0-81.935081-37.392823-81.935081-83.489307 0-46.078198 36.697993-83.489306 81.935081-83.489306z m511.084013 0.274275c45.639358 0 82.629911 37.301398 82.629912 83.343026S986.969402 1023.959956 941.330044 1023.959956c-45.621073 0-82.611626-37.319683-82.611626-83.361312 0-46.023343 36.990553-83.343026 82.611626-83.343026zM524.651482 105.138745c1.225095 1.371375 1.90164 2.63304 3.25473 4.004415 26.933804 29.383994 64.326627 69.537852 110.221975 118.94392 39.404173 41.506948 78.022092 82.904186 108.210626 114.354385L316.769326 780.714611l-27.518923 26.750954a152.789453 152.789453 0 0 1-106.967246 43.463443h-122.692345C36.697993 850.929008 18.284999 832.278309 18.284999 808.83694v-122.93005c0-43.463443 17.626739-84.860681 48.491818-114.939505l23.020814-22.655114z m65.551723-65.533437a130.792599 130.792599 0 0 1 187.567521 0l39.404174 40.153859c51.856258 52.843648 51.856258 138.380874 0 191.078241l-4.60782 5.394075c-87.219446-91.607846-173.872058-183.782527-222.363875-236.60789z" p-id="7071" fill="#2c2c2c"></path></svg>